<mxfile host="app.diagrams.net" modified="2024-04-10T15:43:27.337Z" agent="Mozilla/5.0 (Windows NT 10.0; Win64; x64) AppleWebKit/537.36 (KHTML, like Gecko) Chrome/123.0.0.0 Safari/537.36" etag="JuxJOyzOOwG8PyIKQqsK" version="24.2.3" type="device">
  <diagram id="R2lEEEUBdFMjLlhIrx00" name="Page-1">
    <mxGraphModel dx="1290" dy="569" grid="1" gridSize="10" guides="1" tooltips="1" connect="1" arrows="1" fold="1" page="1" pageScale="1" pageWidth="850" pageHeight="1100" math="0" shadow="0" extFonts="Permanent Marker^https://fonts.googleapis.com/css?family=Permanent+Marker">
      <root>
        <mxCell id="0" />
        <mxCell id="1" parent="0" />
        <mxCell id="eMxhDHR8i_fZ-Yh-1t6r-1" value="Pessoa" style="rounded=0;whiteSpace=wrap;html=1;fontSize=10;" parent="1" vertex="1">
          <mxGeometry x="499.25" y="180" width="70" height="30" as="geometry" />
        </mxCell>
        <mxCell id="eMxhDHR8i_fZ-Yh-1t6r-2" value="Funcionário" style="rounded=0;whiteSpace=wrap;html=1;fontSize=10;" parent="1" vertex="1">
          <mxGeometry x="340" y="400" width="70" height="30" as="geometry" />
        </mxCell>
        <mxCell id="eMxhDHR8i_fZ-Yh-1t6r-3" value="Cliente" style="rounded=0;whiteSpace=wrap;html=1;fontSize=10;" parent="1" vertex="1">
          <mxGeometry x="660" y="400" width="70" height="30" as="geometry" />
        </mxCell>
        <mxCell id="eMxhDHR8i_fZ-Yh-1t6r-4" value="&lt;font style=&quot;font-size: 8px;&quot;&gt;IS-A&lt;/font&gt;" style="triangle;whiteSpace=wrap;html=1;rotation=-90;textDirection=vertical-lr;fontSize=8;" parent="1" vertex="1">
          <mxGeometry x="515.5" y="230" width="37.5" height="50" as="geometry" />
        </mxCell>
        <mxCell id="eMxhDHR8i_fZ-Yh-1t6r-6" value="" style="endArrow=none;html=1;rounded=0;entryX=0;entryY=0.25;entryDx=0;entryDy=0;exitX=0.604;exitY=-0.09;exitDx=0;exitDy=0;exitPerimeter=0;" parent="1" source="eMxhDHR8i_fZ-Yh-1t6r-2" target="eMxhDHR8i_fZ-Yh-1t6r-4" edge="1">
          <mxGeometry width="50" height="50" relative="1" as="geometry">
            <mxPoint x="505" y="335" as="sourcePoint" />
            <mxPoint x="482.4999999999998" y="363.75" as="targetPoint" />
            <Array as="points">
              <mxPoint x="382" y="310" />
              <mxPoint x="522" y="310" />
            </Array>
          </mxGeometry>
        </mxCell>
        <mxCell id="eMxhDHR8i_fZ-Yh-1t6r-7" value="" style="endArrow=none;html=1;rounded=0;entryX=0;entryY=0.75;entryDx=0;entryDy=0;exitX=0.5;exitY=0;exitDx=0;exitDy=0;" parent="1" source="eMxhDHR8i_fZ-Yh-1t6r-3" target="eMxhDHR8i_fZ-Yh-1t6r-4" edge="1">
          <mxGeometry width="50" height="50" relative="1" as="geometry">
            <mxPoint x="510" y="360" as="sourcePoint" />
            <mxPoint x="560" y="310" as="targetPoint" />
            <Array as="points">
              <mxPoint x="695" y="310" />
              <mxPoint x="605" y="310" />
              <mxPoint x="548" y="310" />
            </Array>
          </mxGeometry>
        </mxCell>
        <mxCell id="eMxhDHR8i_fZ-Yh-1t6r-9" value="" style="shape=link;html=1;rounded=0;entryX=0.5;entryY=1;entryDx=0;entryDy=0;exitX=1;exitY=0.5;exitDx=0;exitDy=0;" parent="1" source="eMxhDHR8i_fZ-Yh-1t6r-4" target="eMxhDHR8i_fZ-Yh-1t6r-1" edge="1">
          <mxGeometry width="100" relative="1" as="geometry">
            <mxPoint x="489.25" y="250" as="sourcePoint" />
            <mxPoint x="589.25" y="250" as="targetPoint" />
          </mxGeometry>
        </mxCell>
        <mxCell id="eMxhDHR8i_fZ-Yh-1t6r-10" value="Estabelecimento" style="rounded=0;whiteSpace=wrap;html=1;fontSize=10;" parent="1" vertex="1">
          <mxGeometry x="28" y="400" width="90" height="30" as="geometry" />
        </mxCell>
        <mxCell id="eMxhDHR8i_fZ-Yh-1t6r-11" value="Trabalha" style="rhombus;whiteSpace=wrap;html=1;fontSize=10;" parent="1" vertex="1">
          <mxGeometry x="220" y="387.5" width="55" height="55" as="geometry" />
        </mxCell>
        <mxCell id="eMxhDHR8i_fZ-Yh-1t6r-12" value="Gere" style="rhombus;whiteSpace=wrap;html=1;fontSize=10;" parent="1" vertex="1">
          <mxGeometry x="48" y="591.75" width="50" height="50" as="geometry" />
        </mxCell>
        <mxCell id="eMxhDHR8i_fZ-Yh-1t6r-14" value="" style="shape=link;html=1;rounded=0;entryX=0;entryY=0.5;entryDx=0;entryDy=0;exitX=1;exitY=0.5;exitDx=0;exitDy=0;" parent="1" source="eMxhDHR8i_fZ-Yh-1t6r-11" target="eMxhDHR8i_fZ-Yh-1t6r-2" edge="1">
          <mxGeometry width="100" relative="1" as="geometry">
            <mxPoint x="250" y="510" as="sourcePoint" />
            <mxPoint x="350" y="510" as="targetPoint" />
            <Array as="points">
              <mxPoint x="310" y="415" />
            </Array>
          </mxGeometry>
        </mxCell>
        <mxCell id="eMxhDHR8i_fZ-Yh-1t6r-16" value="1" style="text;strokeColor=none;align=center;fillColor=none;html=1;verticalAlign=middle;whiteSpace=wrap;rounded=0;fontSize=10;" parent="1" vertex="1">
          <mxGeometry x="118" y="396" width="20" height="20" as="geometry" />
        </mxCell>
        <mxCell id="eMxhDHR8i_fZ-Yh-1t6r-17" value="N" style="text;strokeColor=none;align=center;fillColor=none;html=1;verticalAlign=middle;whiteSpace=wrap;rounded=0;fontSize=10;" parent="1" vertex="1">
          <mxGeometry x="320" y="394" width="20" height="20" as="geometry" />
        </mxCell>
        <mxCell id="eMxhDHR8i_fZ-Yh-1t6r-18" value="" style="shape=link;html=1;rounded=0;exitX=0.5;exitY=1;exitDx=0;exitDy=0;entryX=0.5;entryY=0;entryDx=0;entryDy=0;" parent="1" source="eMxhDHR8i_fZ-Yh-1t6r-10" target="eMxhDHR8i_fZ-Yh-1t6r-12" edge="1">
          <mxGeometry width="100" relative="1" as="geometry">
            <mxPoint x="400" y="470" as="sourcePoint" />
            <mxPoint x="500" y="470" as="targetPoint" />
            <Array as="points" />
          </mxGeometry>
        </mxCell>
        <mxCell id="eMxhDHR8i_fZ-Yh-1t6r-20" value="1" style="text;strokeColor=none;align=center;fillColor=none;html=1;verticalAlign=middle;whiteSpace=wrap;rounded=0;fontSize=10;" parent="1" vertex="1">
          <mxGeometry x="73" y="430" width="20" height="20" as="geometry" />
        </mxCell>
        <mxCell id="eMxhDHR8i_fZ-Yh-1t6r-21" value="1" style="text;strokeColor=none;align=center;fillColor=none;html=1;verticalAlign=middle;whiteSpace=wrap;rounded=0;fontSize=10;" parent="1" vertex="1">
          <mxGeometry x="201.5" y="595" width="20" height="20" as="geometry" />
        </mxCell>
        <mxCell id="eMxhDHR8i_fZ-Yh-1t6r-24" value="" style="shape=link;html=1;rounded=0;entryX=0;entryY=0.5;entryDx=0;entryDy=0;exitX=1;exitY=0.5;exitDx=0;exitDy=0;" parent="1" source="eMxhDHR8i_fZ-Yh-1t6r-10" target="eMxhDHR8i_fZ-Yh-1t6r-11" edge="1">
          <mxGeometry width="100" relative="1" as="geometry">
            <mxPoint x="110" y="360" as="sourcePoint" />
            <mxPoint x="210" y="360" as="targetPoint" />
            <Array as="points" />
          </mxGeometry>
        </mxCell>
        <mxCell id="eMxhDHR8i_fZ-Yh-1t6r-25" value="&lt;font style=&quot;font-size: 8px;&quot;&gt;IS-A&lt;/font&gt;" style="triangle;whiteSpace=wrap;html=1;rotation=-90;textDirection=vertical-lr;fontSize=8;" parent="1" vertex="1">
          <mxGeometry x="297.5" y="500" width="37.5" height="50" as="geometry" />
        </mxCell>
        <mxCell id="eMxhDHR8i_fZ-Yh-1t6r-26" value="" style="shape=link;html=1;rounded=0;entryX=0.25;entryY=1;entryDx=0;entryDy=0;exitX=1;exitY=0.5;exitDx=0;exitDy=0;" parent="1" source="eMxhDHR8i_fZ-Yh-1t6r-25" target="eMxhDHR8i_fZ-Yh-1t6r-2" edge="1">
          <mxGeometry width="100" relative="1" as="geometry">
            <mxPoint x="455" y="330" as="sourcePoint" />
            <mxPoint x="455" y="310" as="targetPoint" />
            <Array as="points">
              <mxPoint x="316" y="480" />
              <mxPoint x="357" y="480" />
            </Array>
          </mxGeometry>
        </mxCell>
        <mxCell id="eMxhDHR8i_fZ-Yh-1t6r-27" value="Efetivo" style="rounded=0;whiteSpace=wrap;html=1;fontSize=10;" parent="1" vertex="1">
          <mxGeometry x="222.5" y="601.75" width="70" height="30" as="geometry" />
        </mxCell>
        <mxCell id="eMxhDHR8i_fZ-Yh-1t6r-28" value="Estagiário" style="rounded=0;whiteSpace=wrap;html=1;fontSize=10;" parent="1" vertex="1">
          <mxGeometry x="335" y="601.75" width="70" height="30" as="geometry" />
        </mxCell>
        <mxCell id="eMxhDHR8i_fZ-Yh-1t6r-29" value="disjoint" style="text;strokeColor=none;align=center;fillColor=none;html=1;verticalAlign=middle;whiteSpace=wrap;rounded=0;fontSize=10;" parent="1" vertex="1">
          <mxGeometry x="323" y="507.75" width="42.5" height="20" as="geometry" />
        </mxCell>
        <mxCell id="eMxhDHR8i_fZ-Yh-1t6r-30" value="" style="endArrow=none;html=1;rounded=0;entryX=0;entryY=0.25;entryDx=0;entryDy=0;exitX=0.5;exitY=0;exitDx=0;exitDy=0;" parent="1" source="eMxhDHR8i_fZ-Yh-1t6r-27" target="eMxhDHR8i_fZ-Yh-1t6r-25" edge="1">
          <mxGeometry width="50" height="50" relative="1" as="geometry">
            <mxPoint x="258" y="600" as="sourcePoint" />
            <mxPoint x="304.75" y="544" as="targetPoint" />
            <Array as="points">
              <mxPoint x="258" y="590" />
              <mxPoint x="258" y="580.25" />
              <mxPoint x="304" y="580" />
            </Array>
          </mxGeometry>
        </mxCell>
        <mxCell id="eMxhDHR8i_fZ-Yh-1t6r-31" value="" style="endArrow=none;html=1;rounded=0;entryX=1;entryY=0.5;entryDx=0;entryDy=0;exitX=0;exitY=0.5;exitDx=0;exitDy=0;" parent="1" source="eMxhDHR8i_fZ-Yh-1t6r-27" target="eMxhDHR8i_fZ-Yh-1t6r-12" edge="1">
          <mxGeometry width="50" height="50" relative="1" as="geometry">
            <mxPoint x="390" y="490" as="sourcePoint" />
            <mxPoint x="440" y="440" as="targetPoint" />
          </mxGeometry>
        </mxCell>
        <mxCell id="eMxhDHR8i_fZ-Yh-1t6r-32" value="" style="endArrow=none;html=1;rounded=0;entryX=0;entryY=0.75;entryDx=0;entryDy=0;exitX=0.5;exitY=0;exitDx=0;exitDy=0;" parent="1" source="eMxhDHR8i_fZ-Yh-1t6r-28" target="eMxhDHR8i_fZ-Yh-1t6r-25" edge="1">
          <mxGeometry width="50" height="50" relative="1" as="geometry">
            <mxPoint x="365" y="600" as="sourcePoint" />
            <mxPoint x="350" y="488.75" as="targetPoint" />
            <Array as="points">
              <mxPoint x="370" y="580" />
              <mxPoint x="329" y="580" />
            </Array>
          </mxGeometry>
        </mxCell>
        <mxCell id="eMxhDHR8i_fZ-Yh-1t6r-36" value="Contrato" style="shape=ext;margin=3;double=1;whiteSpace=wrap;html=1;align=center;fontSize=10;" parent="1" vertex="1">
          <mxGeometry x="128.25" y="820" width="65" height="30" as="geometry" />
        </mxCell>
        <mxCell id="eMxhDHR8i_fZ-Yh-1t6r-37" value="Possui" style="shape=rhombus;double=1;perimeter=rhombusPerimeter;whiteSpace=wrap;html=1;align=center;fontSize=10;" parent="1" vertex="1">
          <mxGeometry x="135.25" y="720" width="50" height="50" as="geometry" />
        </mxCell>
        <mxCell id="eMxhDHR8i_fZ-Yh-1t6r-38" value="" style="shape=link;html=1;rounded=0;entryX=0.5;entryY=0;entryDx=0;entryDy=0;exitX=0.5;exitY=1;exitDx=0;exitDy=0;" parent="1" source="eMxhDHR8i_fZ-Yh-1t6r-37" target="eMxhDHR8i_fZ-Yh-1t6r-36" edge="1">
          <mxGeometry width="100" relative="1" as="geometry">
            <mxPoint x="175.25" y="640" as="sourcePoint" />
            <mxPoint x="275.25" y="640" as="targetPoint" />
          </mxGeometry>
        </mxCell>
        <mxCell id="eMxhDHR8i_fZ-Yh-1t6r-39" value="" style="shape=link;html=1;rounded=0;entryX=0.25;entryY=1;entryDx=0;entryDy=0;exitX=0.5;exitY=0;exitDx=0;exitDy=0;" parent="1" source="eMxhDHR8i_fZ-Yh-1t6r-37" target="eMxhDHR8i_fZ-Yh-1t6r-27" edge="1">
          <mxGeometry width="100" relative="1" as="geometry">
            <mxPoint x="234.99999999999977" y="668.75" as="sourcePoint" />
            <mxPoint x="350" y="588.75" as="targetPoint" />
            <Array as="points">
              <mxPoint x="160" y="700" />
              <mxPoint x="240" y="700" />
            </Array>
          </mxGeometry>
        </mxCell>
        <mxCell id="eMxhDHR8i_fZ-Yh-1t6r-40" value="1" style="text;strokeColor=none;align=center;fillColor=none;html=1;verticalAlign=middle;whiteSpace=wrap;rounded=0;fontSize=10;" parent="1" vertex="1">
          <mxGeometry x="140.25" y="800" width="20" height="20" as="geometry" />
        </mxCell>
        <mxCell id="eMxhDHR8i_fZ-Yh-1t6r-41" value="1" style="text;strokeColor=none;align=center;fillColor=none;html=1;verticalAlign=middle;whiteSpace=wrap;rounded=0;fontSize=10;" parent="1" vertex="1">
          <mxGeometry x="220" y="631.75" width="20" height="20" as="geometry" />
        </mxCell>
        <mxCell id="eMxhDHR8i_fZ-Yh-1t6r-55" value="Marcação" style="shape=ext;margin=3;double=1;whiteSpace=wrap;html=1;align=center;fontSize=10;" parent="1" vertex="1">
          <mxGeometry x="662.5" y="565" width="65" height="30" as="geometry" />
        </mxCell>
        <mxCell id="eMxhDHR8i_fZ-Yh-1t6r-56" value="" style="shape=link;html=1;rounded=0;exitX=0.5;exitY=0;exitDx=0;exitDy=0;entryX=0.5;entryY=1;entryDx=0;entryDy=0;" parent="1" source="eMxhDHR8i_fZ-Yh-1t6r-55" target="eMxhDHR8i_fZ-Yh-1t6r-63" edge="1">
          <mxGeometry width="100" relative="1" as="geometry">
            <mxPoint x="480" y="480" as="sourcePoint" />
            <mxPoint x="710" y="530" as="targetPoint" />
          </mxGeometry>
        </mxCell>
        <mxCell id="eMxhDHR8i_fZ-Yh-1t6r-57" value="" style="endArrow=none;html=1;rounded=0;entryX=0.5;entryY=1;entryDx=0;entryDy=0;exitX=0.5;exitY=0;exitDx=0;exitDy=0;" parent="1" source="eMxhDHR8i_fZ-Yh-1t6r-63" target="eMxhDHR8i_fZ-Yh-1t6r-3" edge="1">
          <mxGeometry width="50" height="50" relative="1" as="geometry">
            <mxPoint x="710" y="460" as="sourcePoint" />
            <mxPoint x="460" y="440" as="targetPoint" />
            <Array as="points" />
          </mxGeometry>
        </mxCell>
        <mxCell id="eMxhDHR8i_fZ-Yh-1t6r-58" value="1" style="text;strokeColor=none;align=center;fillColor=none;html=1;verticalAlign=middle;whiteSpace=wrap;rounded=0;fontSize=10;" parent="1" vertex="1">
          <mxGeometry x="694" y="430" width="20" height="20" as="geometry" />
        </mxCell>
        <mxCell id="eMxhDHR8i_fZ-Yh-1t6r-59" value="N" style="text;strokeColor=none;align=center;fillColor=none;html=1;verticalAlign=middle;whiteSpace=wrap;rounded=0;fontSize=10;" parent="1" vertex="1">
          <mxGeometry x="694" y="545" width="20" height="20" as="geometry" />
        </mxCell>
        <mxCell id="eMxhDHR8i_fZ-Yh-1t6r-61" value="" style="endArrow=none;html=1;rounded=0;entryX=1;entryY=0;entryDx=0;entryDy=0;exitX=0;exitY=0.5;exitDx=0;exitDy=0;" parent="1" source="eMxhDHR8i_fZ-Yh-1t6r-64" target="X39o-CBuqJlQ3TK0gBYp-1" edge="1">
          <mxGeometry width="50" height="50" relative="1" as="geometry">
            <mxPoint x="509.9999999999998" y="555" as="sourcePoint" />
            <mxPoint x="460" y="530" as="targetPoint" />
            <Array as="points">
              <mxPoint x="390" y="580" />
            </Array>
          </mxGeometry>
        </mxCell>
        <mxCell id="eMxhDHR8i_fZ-Yh-1t6r-62" value="" style="shape=link;html=1;rounded=0;entryX=0;entryY=0.5;entryDx=0;entryDy=0;exitX=1;exitY=0.5;exitDx=0;exitDy=0;" parent="1" source="eMxhDHR8i_fZ-Yh-1t6r-64" target="eMxhDHR8i_fZ-Yh-1t6r-55" edge="1">
          <mxGeometry width="100" relative="1" as="geometry">
            <mxPoint x="534.9999999999998" y="580" as="sourcePoint" />
            <mxPoint x="490" y="560" as="targetPoint" />
          </mxGeometry>
        </mxCell>
        <mxCell id="eMxhDHR8i_fZ-Yh-1t6r-63" value="Efetua" style="shape=rhombus;double=1;perimeter=rhombusPerimeter;whiteSpace=wrap;html=1;align=center;fontSize=10;" parent="1" vertex="1">
          <mxGeometry x="670" y="468.75" width="50" height="50" as="geometry" />
        </mxCell>
        <mxCell id="eMxhDHR8i_fZ-Yh-1t6r-64" value="Tem" style="shape=rhombus;double=1;perimeter=rhombusPerimeter;whiteSpace=wrap;html=1;align=center;fontSize=10;" parent="1" vertex="1">
          <mxGeometry x="485" y="555" width="50" height="50" as="geometry" />
        </mxCell>
        <mxCell id="eMxhDHR8i_fZ-Yh-1t6r-65" value="Inclui" style="rhombus;whiteSpace=wrap;html=1;fontSize=10;" parent="1" vertex="1">
          <mxGeometry x="667.5" y="650" width="55" height="55" as="geometry" />
        </mxCell>
        <mxCell id="eMxhDHR8i_fZ-Yh-1t6r-66" value="Tipo_serviço" style="rounded=0;whiteSpace=wrap;html=1;fontSize=10;" parent="1" vertex="1">
          <mxGeometry x="660" y="778.75" width="70" height="30" as="geometry" />
        </mxCell>
        <mxCell id="eMxhDHR8i_fZ-Yh-1t6r-68" value="" style="shape=link;html=1;rounded=0;entryX=0.5;entryY=1;entryDx=0;entryDy=0;exitX=0.5;exitY=0;exitDx=0;exitDy=0;" parent="1" source="eMxhDHR8i_fZ-Yh-1t6r-65" target="eMxhDHR8i_fZ-Yh-1t6r-55" edge="1">
          <mxGeometry width="100" relative="1" as="geometry">
            <mxPoint x="570" y="628.75" as="sourcePoint" />
            <mxPoint x="670" y="628.75" as="targetPoint" />
          </mxGeometry>
        </mxCell>
        <mxCell id="eMxhDHR8i_fZ-Yh-1t6r-69" value="" style="shape=link;html=1;rounded=0;entryX=0.5;entryY=1;entryDx=0;entryDy=0;exitX=0.5;exitY=0;exitDx=0;exitDy=0;" parent="1" source="eMxhDHR8i_fZ-Yh-1t6r-66" target="eMxhDHR8i_fZ-Yh-1t6r-65" edge="1">
          <mxGeometry width="100" relative="1" as="geometry">
            <mxPoint x="705" y="660" as="sourcePoint" />
            <mxPoint x="705" y="605" as="targetPoint" />
          </mxGeometry>
        </mxCell>
        <mxCell id="eMxhDHR8i_fZ-Yh-1t6r-70" value="N" style="text;strokeColor=none;align=center;fillColor=none;html=1;verticalAlign=middle;whiteSpace=wrap;rounded=0;fontSize=10;" parent="1" vertex="1">
          <mxGeometry x="694" y="595" width="20" height="20" as="geometry" />
        </mxCell>
        <mxCell id="eMxhDHR8i_fZ-Yh-1t6r-71" value="M" style="text;strokeColor=none;align=center;fillColor=none;html=1;verticalAlign=middle;whiteSpace=wrap;rounded=0;fontSize=10;" parent="1" vertex="1">
          <mxGeometry x="694" y="758.75" width="20" height="20" as="geometry" />
        </mxCell>
        <mxCell id="IdolrLKD9zsO8Ud0g2I0-8" value="nome" style="ellipse;whiteSpace=wrap;html=1;fontSize=10;" parent="1" vertex="1">
          <mxGeometry x="454.5" y="136" width="35" height="20" as="geometry" />
        </mxCell>
        <mxCell id="IdolrLKD9zsO8Ud0g2I0-9" value="Pnome" style="ellipse;whiteSpace=wrap;html=1;fontSize=10;" parent="1" vertex="1">
          <mxGeometry x="399.5" y="103" width="45" height="20" as="geometry" />
        </mxCell>
        <mxCell id="IdolrLKD9zsO8Ud0g2I0-11" value="Unome" style="ellipse;whiteSpace=wrap;html=1;fontSize=10;" parent="1" vertex="1">
          <mxGeometry x="446.25" y="88" width="45" height="20" as="geometry" />
        </mxCell>
        <mxCell id="IdolrLKD9zsO8Ud0g2I0-12" value="" style="endArrow=none;html=1;rounded=0;entryX=0.5;entryY=1;entryDx=0;entryDy=0;exitX=0;exitY=0;exitDx=0;exitDy=0;" parent="1" source="IdolrLKD9zsO8Ud0g2I0-8" target="IdolrLKD9zsO8Ud0g2I0-9" edge="1">
          <mxGeometry width="50" height="50" relative="1" as="geometry">
            <mxPoint x="485.5" y="180" as="sourcePoint" />
            <mxPoint x="535.5" y="130" as="targetPoint" />
          </mxGeometry>
        </mxCell>
        <mxCell id="IdolrLKD9zsO8Ud0g2I0-13" value="" style="endArrow=none;html=1;rounded=0;entryX=0.5;entryY=1;entryDx=0;entryDy=0;exitX=1;exitY=0;exitDx=0;exitDy=0;" parent="1" source="IdolrLKD9zsO8Ud0g2I0-8" target="IdolrLKD9zsO8Ud0g2I0-11" edge="1">
          <mxGeometry width="50" height="50" relative="1" as="geometry">
            <mxPoint x="457.5" y="104" as="sourcePoint" />
            <mxPoint x="440.5" y="80" as="targetPoint" />
          </mxGeometry>
        </mxCell>
        <mxCell id="IdolrLKD9zsO8Ud0g2I0-14" value="" style="endArrow=none;html=1;rounded=0;entryX=1;entryY=1;entryDx=0;entryDy=0;exitX=0.25;exitY=0;exitDx=0;exitDy=0;" parent="1" source="eMxhDHR8i_fZ-Yh-1t6r-1" target="IdolrLKD9zsO8Ud0g2I0-8" edge="1">
          <mxGeometry width="50" height="50" relative="1" as="geometry">
            <mxPoint x="532.25" y="124" as="sourcePoint" />
            <mxPoint x="548.25" y="100" as="targetPoint" />
          </mxGeometry>
        </mxCell>
        <mxCell id="IdolrLKD9zsO8Ud0g2I0-15" value="nif" style="ellipse;whiteSpace=wrap;html=1;fontSize=10;fontStyle=4" parent="1" vertex="1">
          <mxGeometry x="510.5" y="140" width="37.5" height="20" as="geometry" />
        </mxCell>
        <mxCell id="IdolrLKD9zsO8Ud0g2I0-16" value="" style="endArrow=none;html=1;rounded=0;entryX=0.5;entryY=1;entryDx=0;entryDy=0;exitX=0.5;exitY=0;exitDx=0;exitDy=0;" parent="1" source="eMxhDHR8i_fZ-Yh-1t6r-1" target="IdolrLKD9zsO8Ud0g2I0-15" edge="1">
          <mxGeometry width="50" height="50" relative="1" as="geometry">
            <mxPoint x="529.25" y="200" as="sourcePoint" />
            <mxPoint x="579.25" y="150" as="targetPoint" />
          </mxGeometry>
        </mxCell>
        <mxCell id="IdolrLKD9zsO8Ud0g2I0-17" value="sexo" style="ellipse;whiteSpace=wrap;html=1;fontSize=10;fontStyle=0" parent="1" vertex="1">
          <mxGeometry x="609.25" y="205" width="37.5" height="20" as="geometry" />
        </mxCell>
        <mxCell id="IdolrLKD9zsO8Ud0g2I0-18" value="" style="endArrow=none;html=1;rounded=0;entryX=0;entryY=0.5;entryDx=0;entryDy=0;exitX=1;exitY=0.75;exitDx=0;exitDy=0;" parent="1" source="eMxhDHR8i_fZ-Yh-1t6r-1" target="IdolrLKD9zsO8Ud0g2I0-17" edge="1">
          <mxGeometry width="50" height="50" relative="1" as="geometry">
            <mxPoint x="579.25" y="220" as="sourcePoint" />
            <mxPoint x="617.25" y="273" as="targetPoint" />
          </mxGeometry>
        </mxCell>
        <mxCell id="IdolrLKD9zsO8Ud0g2I0-19" value="data_nascimento" style="ellipse;whiteSpace=wrap;html=1;fontSize=10;fontStyle=0" parent="1" vertex="1">
          <mxGeometry x="609" y="163" width="87.5" height="30" as="geometry" />
        </mxCell>
        <mxCell id="IdolrLKD9zsO8Ud0g2I0-20" value="" style="endArrow=none;html=1;rounded=0;entryX=0;entryY=0.5;entryDx=0;entryDy=0;exitX=1;exitY=0.25;exitDx=0;exitDy=0;" parent="1" source="eMxhDHR8i_fZ-Yh-1t6r-1" target="IdolrLKD9zsO8Ud0g2I0-19" edge="1">
          <mxGeometry width="50" height="50" relative="1" as="geometry">
            <mxPoint x="579.25" y="213" as="sourcePoint" />
            <mxPoint x="634.25" y="235" as="targetPoint" />
          </mxGeometry>
        </mxCell>
        <mxCell id="IdolrLKD9zsO8Ud0g2I0-21" value="morada" style="ellipse;whiteSpace=wrap;html=1;fontSize=10;" parent="1" vertex="1">
          <mxGeometry x="570.5" y="133" width="50" height="20" as="geometry" />
        </mxCell>
        <mxCell id="IdolrLKD9zsO8Ud0g2I0-22" value="" style="endArrow=none;html=1;rounded=0;entryX=0.5;entryY=1;entryDx=0;entryDy=0;exitX=0.75;exitY=0;exitDx=0;exitDy=0;" parent="1" source="eMxhDHR8i_fZ-Yh-1t6r-1" target="IdolrLKD9zsO8Ud0g2I0-21" edge="1">
          <mxGeometry width="50" height="50" relative="1" as="geometry">
            <mxPoint x="527.25" y="190" as="sourcePoint" />
            <mxPoint x="512.25" y="150" as="targetPoint" />
          </mxGeometry>
        </mxCell>
        <mxCell id="IdolrLKD9zsO8Ud0g2I0-29" value="especificação" style="ellipse;whiteSpace=wrap;html=1;fontSize=10;" parent="1" vertex="1">
          <mxGeometry x="53.5" y="314" width="65" height="30" as="geometry" />
        </mxCell>
        <mxCell id="IdolrLKD9zsO8Ud0g2I0-31" value="rua" style="ellipse;whiteSpace=wrap;html=1;fontSize=10;" parent="1" vertex="1">
          <mxGeometry x="611.75" y="93" width="30" height="20" as="geometry" />
        </mxCell>
        <mxCell id="IdolrLKD9zsO8Ud0g2I0-32" value="localidade" style="ellipse;whiteSpace=wrap;html=1;fontSize=10;" parent="1" vertex="1">
          <mxGeometry x="580.75" y="59" width="60" height="20" as="geometry" />
        </mxCell>
        <mxCell id="IdolrLKD9zsO8Ud0g2I0-33" value="cod_postal" style="ellipse;whiteSpace=wrap;html=1;fontSize=10;" parent="1" vertex="1">
          <mxGeometry x="518" y="93" width="70" height="20" as="geometry" />
        </mxCell>
        <mxCell id="IdolrLKD9zsO8Ud0g2I0-34" value="" style="endArrow=none;html=1;rounded=0;entryX=0.5;entryY=1;entryDx=0;entryDy=0;exitX=0.635;exitY=-0.01;exitDx=0;exitDy=0;exitPerimeter=0;" parent="1" source="IdolrLKD9zsO8Ud0g2I0-21" target="IdolrLKD9zsO8Ud0g2I0-31" edge="1">
          <mxGeometry width="50" height="50" relative="1" as="geometry">
            <mxPoint x="584.25" y="110" as="sourcePoint" />
            <mxPoint x="555.25" y="90" as="targetPoint" />
          </mxGeometry>
        </mxCell>
        <mxCell id="IdolrLKD9zsO8Ud0g2I0-35" value="" style="endArrow=none;html=1;rounded=0;exitX=0.444;exitY=0.019;exitDx=0;exitDy=0;exitPerimeter=0;entryX=0.5;entryY=1;entryDx=0;entryDy=0;" parent="1" source="IdolrLKD9zsO8Ud0g2I0-21" target="IdolrLKD9zsO8Ud0g2I0-32" edge="1">
          <mxGeometry width="50" height="50" relative="1" as="geometry">
            <mxPoint x="614.25" y="100" as="sourcePoint" />
            <mxPoint x="614" y="70" as="targetPoint" />
            <Array as="points" />
          </mxGeometry>
        </mxCell>
        <mxCell id="IdolrLKD9zsO8Ud0g2I0-36" value="" style="endArrow=none;html=1;rounded=0;entryX=0.5;entryY=1;entryDx=0;entryDy=0;exitX=0;exitY=0;exitDx=0;exitDy=0;" parent="1" source="IdolrLKD9zsO8Ud0g2I0-21" target="IdolrLKD9zsO8Ud0g2I0-33" edge="1">
          <mxGeometry width="50" height="50" relative="1" as="geometry">
            <mxPoint x="654.25" y="120" as="sourcePoint" />
            <mxPoint x="652.25" y="50" as="targetPoint" />
          </mxGeometry>
        </mxCell>
        <mxCell id="IdolrLKD9zsO8Ud0g2I0-38" value="id" style="ellipse;whiteSpace=wrap;html=1;fontSize=10;fontStyle=4" parent="1" vertex="1">
          <mxGeometry x="20" y="350" width="50" height="20" as="geometry" />
        </mxCell>
        <mxCell id="IdolrLKD9zsO8Ud0g2I0-39" value="" style="endArrow=none;html=1;rounded=0;entryX=0.5;entryY=1;entryDx=0;entryDy=0;exitX=0.75;exitY=0;exitDx=0;exitDy=0;" parent="1" source="eMxhDHR8i_fZ-Yh-1t6r-10" target="5Oc1KHu-XODOHg-Idlgh-15" edge="1">
          <mxGeometry width="50" height="50" relative="1" as="geometry">
            <mxPoint x="280" y="270" as="sourcePoint" />
            <mxPoint x="184.75" y="325" as="targetPoint" />
          </mxGeometry>
        </mxCell>
        <mxCell id="IdolrLKD9zsO8Ud0g2I0-41" value="" style="endArrow=none;html=1;rounded=0;entryX=0.5;entryY=1;entryDx=0;entryDy=0;exitX=0.5;exitY=0;exitDx=0;exitDy=0;" parent="1" source="eMxhDHR8i_fZ-Yh-1t6r-10" target="IdolrLKD9zsO8Ud0g2I0-29" edge="1">
          <mxGeometry width="50" height="50" relative="1" as="geometry">
            <mxPoint x="125" y="410" as="sourcePoint" />
            <mxPoint x="145" y="335" as="targetPoint" />
          </mxGeometry>
        </mxCell>
        <mxCell id="IdolrLKD9zsO8Ud0g2I0-42" value="" style="endArrow=none;html=1;rounded=0;entryX=0.5;entryY=1;entryDx=0;entryDy=0;exitX=0.153;exitY=-0.005;exitDx=0;exitDy=0;exitPerimeter=0;" parent="1" source="eMxhDHR8i_fZ-Yh-1t6r-10" target="IdolrLKD9zsO8Ud0g2I0-38" edge="1">
          <mxGeometry width="50" height="50" relative="1" as="geometry">
            <mxPoint x="103" y="410" as="sourcePoint" />
            <mxPoint x="75" y="345" as="targetPoint" />
          </mxGeometry>
        </mxCell>
        <mxCell id="IdolrLKD9zsO8Ud0g2I0-43" value="num_func" style="ellipse;whiteSpace=wrap;html=1;fontSize=10;fontStyle=0" parent="1" vertex="1">
          <mxGeometry x="425" y="383" width="60" height="26" as="geometry" />
        </mxCell>
        <mxCell id="IdolrLKD9zsO8Ud0g2I0-44" value="" style="endArrow=none;html=1;rounded=0;entryX=1;entryY=0;entryDx=0;entryDy=0;exitX=0;exitY=0.5;exitDx=0;exitDy=0;" parent="1" source="IdolrLKD9zsO8Ud0g2I0-43" target="eMxhDHR8i_fZ-Yh-1t6r-2" edge="1">
          <mxGeometry width="50" height="50" relative="1" as="geometry">
            <mxPoint x="280" y="390" as="sourcePoint" />
            <mxPoint x="330" y="340" as="targetPoint" />
          </mxGeometry>
        </mxCell>
        <mxCell id="IdolrLKD9zsO8Ud0g2I0-46" value="" style="endArrow=none;html=1;rounded=0;entryX=0.877;entryY=-0.014;entryDx=0;entryDy=0;exitX=0;exitY=1;exitDx=0;exitDy=0;entryPerimeter=0;" parent="1" source="IdolrLKD9zsO8Ud0g2I0-48" target="eMxhDHR8i_fZ-Yh-1t6r-2" edge="1">
          <mxGeometry width="50" height="50" relative="1" as="geometry">
            <mxPoint x="458.7499999999941" y="435" as="sourcePoint" />
            <mxPoint x="420" y="440" as="targetPoint" />
          </mxGeometry>
        </mxCell>
        <mxCell id="IdolrLKD9zsO8Ud0g2I0-48" value="nums_telem" style="ellipse;shape=doubleEllipse;margin=3;whiteSpace=wrap;html=1;align=center;fontSize=10;" parent="1" vertex="1">
          <mxGeometry x="446.75" y="336" width="68.75" height="35" as="geometry" />
        </mxCell>
        <mxCell id="IdolrLKD9zsO8Ud0g2I0-49" value="num_conta" style="ellipse;whiteSpace=wrap;html=1;fontSize=10;fontStyle=0" parent="1" vertex="1">
          <mxGeometry x="770" y="370" width="60" height="26" as="geometry" />
        </mxCell>
        <mxCell id="IdolrLKD9zsO8Ud0g2I0-50" value="num_telem" style="ellipse;whiteSpace=wrap;html=1;fontSize=10;fontStyle=0" parent="1" vertex="1">
          <mxGeometry x="770" y="414" width="60" height="26" as="geometry" />
        </mxCell>
        <mxCell id="IdolrLKD9zsO8Ud0g2I0-51" value="" style="endArrow=none;html=1;rounded=0;entryX=1;entryY=0.25;entryDx=0;entryDy=0;exitX=0;exitY=0.5;exitDx=0;exitDy=0;" parent="1" source="IdolrLKD9zsO8Ud0g2I0-49" target="eMxhDHR8i_fZ-Yh-1t6r-3" edge="1">
          <mxGeometry width="50" height="50" relative="1" as="geometry">
            <mxPoint x="495" y="458" as="sourcePoint" />
            <mxPoint x="470" y="425" as="targetPoint" />
          </mxGeometry>
        </mxCell>
        <mxCell id="IdolrLKD9zsO8Ud0g2I0-52" value="" style="endArrow=none;html=1;rounded=0;entryX=1;entryY=0.75;entryDx=0;entryDy=0;exitX=0;exitY=0.5;exitDx=0;exitDy=0;" parent="1" source="IdolrLKD9zsO8Ud0g2I0-50" target="eMxhDHR8i_fZ-Yh-1t6r-3" edge="1">
          <mxGeometry width="50" height="50" relative="1" as="geometry">
            <mxPoint x="760" y="429" as="sourcePoint" />
            <mxPoint x="650" y="418" as="targetPoint" />
          </mxGeometry>
        </mxCell>
        <mxCell id="IdolrLKD9zsO8Ud0g2I0-53" value="data_fim" style="ellipse;whiteSpace=wrap;html=1;fontSize=10;fontStyle=0" parent="1" vertex="1">
          <mxGeometry x="346.25" y="655.5" width="60" height="26" as="geometry" />
        </mxCell>
        <mxCell id="IdolrLKD9zsO8Ud0g2I0-54" value="" style="endArrow=none;html=1;rounded=0;entryX=0.75;entryY=1;entryDx=0;entryDy=0;exitX=0.5;exitY=0;exitDx=0;exitDy=0;" parent="1" source="IdolrLKD9zsO8Ud0g2I0-53" target="eMxhDHR8i_fZ-Yh-1t6r-28" edge="1">
          <mxGeometry width="50" height="50" relative="1" as="geometry">
            <mxPoint x="446" y="491" as="sourcePoint" />
            <mxPoint x="420" y="440" as="targetPoint" />
          </mxGeometry>
        </mxCell>
        <mxCell id="IdolrLKD9zsO8Ud0g2I0-55" value="salário" style="ellipse;whiteSpace=wrap;html=1;fontSize=10;fontStyle=0;spacingTop=0;strokeColor=default;" parent="1" vertex="1">
          <mxGeometry x="60" y="874" width="45.5" height="26" as="geometry" />
        </mxCell>
        <mxCell id="IdolrLKD9zsO8Ud0g2I0-56" value="data_início" style="ellipse;whiteSpace=wrap;html=1;fontSize=10;fontStyle=0" parent="1" vertex="1">
          <mxGeometry x="185.25" y="900" width="52.5" height="26" as="geometry" />
        </mxCell>
        <mxCell id="IdolrLKD9zsO8Ud0g2I0-57" value="data_fim" style="ellipse;whiteSpace=wrap;html=1;fontSize=10;fontStyle=0" parent="1" vertex="1">
          <mxGeometry x="227.5" y="865.25" width="42.5" height="26" as="geometry" />
        </mxCell>
        <mxCell id="IdolrLKD9zsO8Ud0g2I0-58" value="" style="endArrow=none;html=1;rounded=0;entryX=1;entryY=1;entryDx=0;entryDy=0;exitX=0;exitY=0;exitDx=0;exitDy=0;" parent="1" source="IdolrLKD9zsO8Ud0g2I0-57" target="eMxhDHR8i_fZ-Yh-1t6r-36" edge="1">
          <mxGeometry width="50" height="50" relative="1" as="geometry">
            <mxPoint x="311.75" y="716.25" as="sourcePoint" />
            <mxPoint x="288.75" y="675.25" as="targetPoint" />
          </mxGeometry>
        </mxCell>
        <mxCell id="IdolrLKD9zsO8Ud0g2I0-59" value="" style="endArrow=none;html=1;rounded=0;entryX=0.75;entryY=1;entryDx=0;entryDy=0;exitX=0.5;exitY=0;exitDx=0;exitDy=0;" parent="1" source="IdolrLKD9zsO8Ud0g2I0-56" target="eMxhDHR8i_fZ-Yh-1t6r-36" edge="1">
          <mxGeometry width="50" height="50" relative="1" as="geometry">
            <mxPoint x="238.75" y="901.25" as="sourcePoint" />
            <mxPoint x="203.75" y="860.25" as="targetPoint" />
          </mxGeometry>
        </mxCell>
        <mxCell id="IdolrLKD9zsO8Ud0g2I0-60" value="" style="endArrow=none;html=1;rounded=0;entryX=0;entryY=1;entryDx=0;entryDy=0;exitX=1;exitY=0;exitDx=0;exitDy=0;" parent="1" source="IdolrLKD9zsO8Ud0g2I0-55" target="eMxhDHR8i_fZ-Yh-1t6r-36" edge="1">
          <mxGeometry width="50" height="50" relative="1" as="geometry">
            <mxPoint x="175.75" y="901.25" as="sourcePoint" />
            <mxPoint x="170.75" y="860.25" as="targetPoint" />
          </mxGeometry>
        </mxCell>
        <mxCell id="IdolrLKD9zsO8Ud0g2I0-61" value="Especialidade" style="rounded=0;whiteSpace=wrap;html=1;fontSize=10;" parent="1" vertex="1">
          <mxGeometry x="300" y="820" width="70" height="30" as="geometry" />
        </mxCell>
        <mxCell id="IdolrLKD9zsO8Ud0g2I0-62" value="Tem" style="rhombus;whiteSpace=wrap;html=1;fontSize=10;" parent="1" vertex="1">
          <mxGeometry x="310" y="728.75" width="50" height="50" as="geometry" />
        </mxCell>
        <mxCell id="IdolrLKD9zsO8Ud0g2I0-63" value="" style="endArrow=none;html=1;rounded=0;entryX=0.5;entryY=1;entryDx=0;entryDy=0;exitX=0.5;exitY=0;exitDx=0;exitDy=0;" parent="1" source="IdolrLKD9zsO8Ud0g2I0-61" target="IdolrLKD9zsO8Ud0g2I0-62" edge="1">
          <mxGeometry width="50" height="50" relative="1" as="geometry">
            <mxPoint x="350" y="680" as="sourcePoint" />
            <mxPoint x="400" y="630" as="targetPoint" />
          </mxGeometry>
        </mxCell>
        <mxCell id="IdolrLKD9zsO8Ud0g2I0-65" value="M" style="text;strokeColor=none;align=center;fillColor=none;html=1;verticalAlign=middle;whiteSpace=wrap;rounded=0;fontSize=10;" parent="1" vertex="1">
          <mxGeometry x="335" y="800" width="20" height="20" as="geometry" />
        </mxCell>
        <mxCell id="IdolrLKD9zsO8Ud0g2I0-66" value="N" style="text;strokeColor=none;align=center;fillColor=none;html=1;verticalAlign=middle;whiteSpace=wrap;rounded=0;fontSize=10;" parent="1" vertex="1">
          <mxGeometry x="272.5" y="631.75" width="20" height="20" as="geometry" />
        </mxCell>
        <mxCell id="IdolrLKD9zsO8Ud0g2I0-67" value="designação" style="ellipse;whiteSpace=wrap;html=1;fontSize=10;fontStyle=4" parent="1" vertex="1">
          <mxGeometry x="335" y="865.25" width="60" height="26" as="geometry" />
        </mxCell>
        <mxCell id="IdolrLKD9zsO8Ud0g2I0-68" value="" style="endArrow=none;html=1;rounded=0;entryX=0.5;entryY=1;entryDx=0;entryDy=0;exitX=0.5;exitY=0;exitDx=0;exitDy=0;" parent="1" source="IdolrLKD9zsO8Ud0g2I0-67" target="IdolrLKD9zsO8Ud0g2I0-61" edge="1">
          <mxGeometry width="50" height="50" relative="1" as="geometry">
            <mxPoint x="350" y="680" as="sourcePoint" />
            <mxPoint x="400" y="630" as="targetPoint" />
          </mxGeometry>
        </mxCell>
        <mxCell id="IdolrLKD9zsO8Ud0g2I0-69" value="" style="endArrow=none;html=1;rounded=0;entryX=0.75;entryY=1;entryDx=0;entryDy=0;exitX=0.5;exitY=0;exitDx=0;exitDy=0;" parent="1" source="IdolrLKD9zsO8Ud0g2I0-62" target="eMxhDHR8i_fZ-Yh-1t6r-27" edge="1">
          <mxGeometry width="50" height="50" relative="1" as="geometry">
            <mxPoint x="350" y="680" as="sourcePoint" />
            <mxPoint x="400" y="630" as="targetPoint" />
            <Array as="points">
              <mxPoint x="335" y="700" />
              <mxPoint x="275" y="700" />
            </Array>
          </mxGeometry>
        </mxCell>
        <mxCell id="X39o-CBuqJlQ3TK0gBYp-1" value="1" style="text;strokeColor=none;align=center;fillColor=none;html=1;verticalAlign=middle;whiteSpace=wrap;rounded=0;fontSize=10;" parent="1" vertex="1">
          <mxGeometry x="371.25" y="431.5" width="20" height="20" as="geometry" />
        </mxCell>
        <mxCell id="X39o-CBuqJlQ3TK0gBYp-2" value="N" style="text;strokeColor=none;align=center;fillColor=none;html=1;verticalAlign=middle;whiteSpace=wrap;rounded=0;fontSize=10;" parent="1" vertex="1">
          <mxGeometry x="642.75" y="581.75" width="20" height="20" as="geometry" />
        </mxCell>
        <mxCell id="X39o-CBuqJlQ3TK0gBYp-3" value="sexo" style="ellipse;whiteSpace=wrap;html=1;fontSize=10;fontStyle=4" parent="1" vertex="1">
          <mxGeometry x="760" y="755.75" width="60" height="26" as="geometry" />
        </mxCell>
        <mxCell id="X39o-CBuqJlQ3TK0gBYp-4" value="designação" style="ellipse;whiteSpace=wrap;html=1;fontSize=10;fontStyle=4" parent="1" vertex="1">
          <mxGeometry x="760" y="808.75" width="60" height="26" as="geometry" />
        </mxCell>
        <mxCell id="X39o-CBuqJlQ3TK0gBYp-5" value="" style="endArrow=none;html=1;rounded=0;entryX=0;entryY=0.5;entryDx=0;entryDy=0;exitX=1;exitY=0.25;exitDx=0;exitDy=0;" parent="1" source="eMxhDHR8i_fZ-Yh-1t6r-66" target="X39o-CBuqJlQ3TK0gBYp-3" edge="1">
          <mxGeometry width="50" height="50" relative="1" as="geometry">
            <mxPoint x="650" y="830" as="sourcePoint" />
            <mxPoint x="700" y="780" as="targetPoint" />
          </mxGeometry>
        </mxCell>
        <mxCell id="X39o-CBuqJlQ3TK0gBYp-6" value="" style="endArrow=none;html=1;rounded=0;entryX=0;entryY=0.5;entryDx=0;entryDy=0;exitX=1;exitY=0.75;exitDx=0;exitDy=0;" parent="1" source="eMxhDHR8i_fZ-Yh-1t6r-66" target="X39o-CBuqJlQ3TK0gBYp-4" edge="1">
          <mxGeometry width="50" height="50" relative="1" as="geometry">
            <mxPoint x="670" y="796" as="sourcePoint" />
            <mxPoint x="630" y="776" as="targetPoint" />
          </mxGeometry>
        </mxCell>
        <mxCell id="X39o-CBuqJlQ3TK0gBYp-7" value="nome" style="ellipse;whiteSpace=wrap;html=1;fontSize=10;fontStyle=0" parent="1" vertex="1">
          <mxGeometry x="491.25" y="735" width="60" height="26" as="geometry" />
        </mxCell>
        <mxCell id="X39o-CBuqJlQ3TK0gBYp-8" value="" style="endArrow=none;html=1;rounded=0;entryX=0.5;entryY=1;entryDx=0;entryDy=0;exitX=0.75;exitY=0;exitDx=0;exitDy=0;" parent="1" source="X39o-CBuqJlQ3TK0gBYp-11" target="X39o-CBuqJlQ3TK0gBYp-7" edge="1">
          <mxGeometry width="50" height="50" relative="1" as="geometry">
            <mxPoint x="657.5" y="957.5" as="sourcePoint" />
            <mxPoint x="700" y="880" as="targetPoint" />
          </mxGeometry>
        </mxCell>
        <mxCell id="X39o-CBuqJlQ3TK0gBYp-9" value="preço" style="ellipse;whiteSpace=wrap;html=1;fontSize=10;fontStyle=0" parent="1" vertex="1">
          <mxGeometry x="417" y="737.75" width="60" height="26" as="geometry" />
        </mxCell>
        <mxCell id="X39o-CBuqJlQ3TK0gBYp-10" value="" style="endArrow=none;html=1;rounded=0;entryX=0.5;entryY=1;entryDx=0;entryDy=0;exitX=0.25;exitY=0;exitDx=0;exitDy=0;" parent="1" source="X39o-CBuqJlQ3TK0gBYp-11" target="X39o-CBuqJlQ3TK0gBYp-9" edge="1">
          <mxGeometry width="50" height="50" relative="1" as="geometry">
            <mxPoint x="657.5" y="972.5" as="sourcePoint" />
            <mxPoint x="635" y="947" as="targetPoint" />
          </mxGeometry>
        </mxCell>
        <mxCell id="X39o-CBuqJlQ3TK0gBYp-11" value="Serviço" style="shape=ext;margin=3;double=1;whiteSpace=wrap;html=1;align=center;fontSize=10;" parent="1" vertex="1">
          <mxGeometry x="454.5" y="778.75" width="65" height="30" as="geometry" />
        </mxCell>
        <mxCell id="X39o-CBuqJlQ3TK0gBYp-12" value="Possui" style="shape=rhombus;double=1;perimeter=rhombusPerimeter;whiteSpace=wrap;html=1;align=center;fontSize=10;" parent="1" vertex="1">
          <mxGeometry x="569" y="768.75" width="50" height="50" as="geometry" />
        </mxCell>
        <mxCell id="X39o-CBuqJlQ3TK0gBYp-13" value="" style="shape=link;html=1;rounded=0;entryX=0;entryY=0.5;entryDx=0;entryDy=0;exitX=1;exitY=0.5;exitDx=0;exitDy=0;" parent="1" source="X39o-CBuqJlQ3TK0gBYp-11" target="X39o-CBuqJlQ3TK0gBYp-12" edge="1">
          <mxGeometry width="100" relative="1" as="geometry">
            <mxPoint x="450" y="820" as="sourcePoint" />
            <mxPoint x="550" y="820" as="targetPoint" />
          </mxGeometry>
        </mxCell>
        <mxCell id="X39o-CBuqJlQ3TK0gBYp-14" value="" style="shape=link;html=1;rounded=0;entryX=0;entryY=0.5;entryDx=0;entryDy=0;exitX=1;exitY=0.5;exitDx=0;exitDy=0;" parent="1" source="X39o-CBuqJlQ3TK0gBYp-12" target="eMxhDHR8i_fZ-Yh-1t6r-66" edge="1">
          <mxGeometry width="100" relative="1" as="geometry">
            <mxPoint x="450" y="820" as="sourcePoint" />
            <mxPoint x="550" y="820" as="targetPoint" />
          </mxGeometry>
        </mxCell>
        <mxCell id="X39o-CBuqJlQ3TK0gBYp-15" value="N" style="text;strokeColor=none;align=center;fillColor=none;html=1;verticalAlign=middle;whiteSpace=wrap;rounded=0;fontSize=10;" parent="1" vertex="1">
          <mxGeometry x="639.25" y="798.75" width="20" height="20" as="geometry" />
        </mxCell>
        <mxCell id="X39o-CBuqJlQ3TK0gBYp-16" value="M" style="text;strokeColor=none;align=center;fillColor=none;html=1;verticalAlign=middle;whiteSpace=wrap;rounded=0;fontSize=10;" parent="1" vertex="1">
          <mxGeometry x="519.25" y="798.75" width="20" height="20" as="geometry" />
        </mxCell>
        <mxCell id="X39o-CBuqJlQ3TK0gBYp-17" value="data_pedido" style="ellipse;whiteSpace=wrap;html=1;fontSize=10;fontStyle=0" parent="1" vertex="1">
          <mxGeometry x="760" y="538.75" width="70" height="30" as="geometry" />
        </mxCell>
        <mxCell id="X39o-CBuqJlQ3TK0gBYp-18" value="data_marcação" style="ellipse;whiteSpace=wrap;html=1;fontSize=10;fontStyle=0" parent="1" vertex="1">
          <mxGeometry x="760" y="595" width="80" height="35" as="geometry" />
        </mxCell>
        <mxCell id="X39o-CBuqJlQ3TK0gBYp-19" value="" style="endArrow=none;html=1;rounded=0;entryX=0;entryY=0.5;entryDx=0;entryDy=0;exitX=1;exitY=0.25;exitDx=0;exitDy=0;" parent="1" source="eMxhDHR8i_fZ-Yh-1t6r-55" target="X39o-CBuqJlQ3TK0gBYp-17" edge="1">
          <mxGeometry width="50" height="50" relative="1" as="geometry">
            <mxPoint x="410" y="690" as="sourcePoint" />
            <mxPoint x="460" y="640" as="targetPoint" />
          </mxGeometry>
        </mxCell>
        <mxCell id="X39o-CBuqJlQ3TK0gBYp-20" value="" style="endArrow=none;html=1;rounded=0;entryX=0;entryY=0.5;entryDx=0;entryDy=0;exitX=1;exitY=0.75;exitDx=0;exitDy=0;" parent="1" source="eMxhDHR8i_fZ-Yh-1t6r-55" target="X39o-CBuqJlQ3TK0gBYp-18" edge="1">
          <mxGeometry width="50" height="50" relative="1" as="geometry">
            <mxPoint x="737" y="583" as="sourcePoint" />
            <mxPoint x="770" y="564" as="targetPoint" />
          </mxGeometry>
        </mxCell>
        <mxCell id="X39o-CBuqJlQ3TK0gBYp-22" value="Avaliação" style="shape=ext;margin=3;double=1;whiteSpace=wrap;html=1;align=center;fontSize=10;" parent="1" vertex="1">
          <mxGeometry x="497" y="487.75" width="79.25" height="30" as="geometry" />
        </mxCell>
        <mxCell id="X39o-CBuqJlQ3TK0gBYp-23" value="Possui" style="shape=rhombus;double=1;perimeter=rhombusPerimeter;whiteSpace=wrap;html=1;align=center;fontSize=10;" parent="1" vertex="1">
          <mxGeometry x="410" y="477.75" width="50" height="50" as="geometry" />
        </mxCell>
        <mxCell id="X39o-CBuqJlQ3TK0gBYp-24" value="Efetua" style="shape=rhombus;double=1;perimeter=rhombusPerimeter;whiteSpace=wrap;html=1;align=center;fontSize=10;" parent="1" vertex="1">
          <mxGeometry x="606.75" y="477.75" width="50" height="50" as="geometry" />
        </mxCell>
        <mxCell id="X39o-CBuqJlQ3TK0gBYp-25" value="" style="shape=link;html=1;rounded=0;exitX=1;exitY=0.5;exitDx=0;exitDy=0;entryX=0;entryY=0.5;entryDx=0;entryDy=0;" parent="1" source="X39o-CBuqJlQ3TK0gBYp-23" target="X39o-CBuqJlQ3TK0gBYp-22" edge="1">
          <mxGeometry width="100" relative="1" as="geometry">
            <mxPoint x="510" y="489" as="sourcePoint" />
            <mxPoint x="610" y="489" as="targetPoint" />
          </mxGeometry>
        </mxCell>
        <mxCell id="X39o-CBuqJlQ3TK0gBYp-26" value="" style="endArrow=none;html=1;rounded=0;entryX=1;entryY=0.5;entryDx=0;entryDy=0;exitX=0.5;exitY=0;exitDx=0;exitDy=0;" parent="1" source="X39o-CBuqJlQ3TK0gBYp-23" target="eMxhDHR8i_fZ-Yh-1t6r-2" edge="1">
          <mxGeometry width="50" height="50" relative="1" as="geometry">
            <mxPoint x="530" y="510" as="sourcePoint" />
            <mxPoint x="580" y="460" as="targetPoint" />
            <Array as="points">
              <mxPoint x="435" y="415" />
            </Array>
          </mxGeometry>
        </mxCell>
        <mxCell id="X39o-CBuqJlQ3TK0gBYp-27" value="" style="shape=link;html=1;rounded=0;entryX=0;entryY=0.5;entryDx=0;entryDy=0;exitX=1;exitY=0.5;exitDx=0;exitDy=0;" parent="1" source="X39o-CBuqJlQ3TK0gBYp-22" target="X39o-CBuqJlQ3TK0gBYp-24" edge="1">
          <mxGeometry width="100" relative="1" as="geometry">
            <mxPoint x="560" y="459" as="sourcePoint" />
            <mxPoint x="510" y="513" as="targetPoint" />
          </mxGeometry>
        </mxCell>
        <mxCell id="X39o-CBuqJlQ3TK0gBYp-28" value="" style="endArrow=none;html=1;rounded=0;entryX=0;entryY=0.5;entryDx=0;entryDy=0;exitX=0.5;exitY=0;exitDx=0;exitDy=0;" parent="1" source="X39o-CBuqJlQ3TK0gBYp-24" target="eMxhDHR8i_fZ-Yh-1t6r-3" edge="1">
          <mxGeometry width="50" height="50" relative="1" as="geometry">
            <mxPoint x="445" y="489" as="sourcePoint" />
            <mxPoint x="420" y="425" as="targetPoint" />
            <Array as="points">
              <mxPoint x="632" y="415" />
            </Array>
          </mxGeometry>
        </mxCell>
        <mxCell id="X39o-CBuqJlQ3TK0gBYp-29" value="comentário" style="ellipse;whiteSpace=wrap;html=1;fontSize=10;fontStyle=0" parent="1" vertex="1">
          <mxGeometry x="464.25" y="441" width="60" height="26" as="geometry" />
        </mxCell>
        <mxCell id="X39o-CBuqJlQ3TK0gBYp-30" value="n_estrelas" style="ellipse;whiteSpace=wrap;html=1;fontSize=10;fontStyle=0" parent="1" vertex="1">
          <mxGeometry x="506.63" y="409" width="60" height="26" as="geometry" />
        </mxCell>
        <mxCell id="X39o-CBuqJlQ3TK0gBYp-31" value="data" style="ellipse;whiteSpace=wrap;html=1;fontSize=10;fontStyle=0" parent="1" vertex="1">
          <mxGeometry x="552" y="443" width="60" height="26" as="geometry" />
        </mxCell>
        <mxCell id="X39o-CBuqJlQ3TK0gBYp-32" value="" style="endArrow=none;html=1;rounded=0;entryX=0.5;entryY=1;entryDx=0;entryDy=0;exitX=0.25;exitY=0;exitDx=0;exitDy=0;" parent="1" source="X39o-CBuqJlQ3TK0gBYp-22" edge="1">
          <mxGeometry width="50" height="50" relative="1" as="geometry">
            <mxPoint x="450" y="519" as="sourcePoint" />
            <mxPoint x="494.25" y="466" as="targetPoint" />
          </mxGeometry>
        </mxCell>
        <mxCell id="X39o-CBuqJlQ3TK0gBYp-33" value="" style="endArrow=none;html=1;rounded=0;entryX=0.5;entryY=1;entryDx=0;entryDy=0;exitX=0.5;exitY=0;exitDx=0;exitDy=0;" parent="1" source="X39o-CBuqJlQ3TK0gBYp-22" target="X39o-CBuqJlQ3TK0gBYp-30" edge="1">
          <mxGeometry width="50" height="50" relative="1" as="geometry">
            <mxPoint x="527" y="499" as="sourcePoint" />
            <mxPoint x="489" y="427" as="targetPoint" />
          </mxGeometry>
        </mxCell>
        <mxCell id="X39o-CBuqJlQ3TK0gBYp-34" value="" style="endArrow=none;html=1;rounded=0;entryX=0.5;entryY=1;entryDx=0;entryDy=0;exitX=0.75;exitY=0;exitDx=0;exitDy=0;" parent="1" source="X39o-CBuqJlQ3TK0gBYp-22" edge="1">
          <mxGeometry width="50" height="50" relative="1" as="geometry">
            <mxPoint x="547" y="498" as="sourcePoint" />
            <mxPoint x="582" y="468" as="targetPoint" />
          </mxGeometry>
        </mxCell>
        <mxCell id="X39o-CBuqJlQ3TK0gBYp-35" value="1" style="text;strokeColor=none;align=center;fillColor=none;html=1;verticalAlign=middle;whiteSpace=wrap;rounded=0;fontSize=10;" parent="1" vertex="1">
          <mxGeometry x="639.25" y="414" width="20" height="20" as="geometry" />
        </mxCell>
        <mxCell id="X39o-CBuqJlQ3TK0gBYp-36" value="1" style="text;strokeColor=none;align=center;fillColor=none;html=1;verticalAlign=middle;whiteSpace=wrap;rounded=0;fontSize=10;" parent="1" vertex="1">
          <mxGeometry x="410" y="414" width="20" height="20" as="geometry" />
        </mxCell>
        <mxCell id="X39o-CBuqJlQ3TK0gBYp-37" value="N" style="text;strokeColor=none;align=center;fillColor=none;html=1;verticalAlign=middle;whiteSpace=wrap;rounded=0;fontSize=10;" parent="1" vertex="1">
          <mxGeometry x="477" y="503" width="20" height="20" as="geometry" />
        </mxCell>
        <mxCell id="X39o-CBuqJlQ3TK0gBYp-38" value="N" style="text;strokeColor=none;align=center;fillColor=none;html=1;verticalAlign=middle;whiteSpace=wrap;rounded=0;fontSize=10;" parent="1" vertex="1">
          <mxGeometry x="576.25" y="503" width="20" height="20" as="geometry" />
        </mxCell>
        <mxCell id="2oA3WKhP0oF_Ri5UwpzC-1" value="número" style="ellipse;whiteSpace=wrap;html=1;fontSize=10;" parent="1" vertex="1">
          <mxGeometry x="650.25" y="106" width="45" height="20" as="geometry" />
        </mxCell>
        <mxCell id="2oA3WKhP0oF_Ri5UwpzC-2" value="" style="endArrow=none;html=1;rounded=0;exitX=1;exitY=0;exitDx=0;exitDy=0;entryX=0;entryY=1;entryDx=0;entryDy=0;" parent="1" source="IdolrLKD9zsO8Ud0g2I0-21" target="2oA3WKhP0oF_Ri5UwpzC-1" edge="1">
          <mxGeometry width="50" height="50" relative="1" as="geometry">
            <mxPoint x="611" y="123" as="sourcePoint" />
            <mxPoint x="703" y="106" as="targetPoint" />
          </mxGeometry>
        </mxCell>
        <mxCell id="2oA3WKhP0oF_Ri5UwpzC-3" value="descrição" style="ellipse;whiteSpace=wrap;html=1;fontSize=10;fontStyle=0" parent="1" vertex="1">
          <mxGeometry x="118.75" y="900" width="45.5" height="26" as="geometry" />
        </mxCell>
        <mxCell id="2oA3WKhP0oF_Ri5UwpzC-4" value="" style="endArrow=none;html=1;rounded=0;entryX=0.25;entryY=1;entryDx=0;entryDy=0;exitX=0.5;exitY=0;exitDx=0;exitDy=0;" parent="1" source="2oA3WKhP0oF_Ri5UwpzC-3" target="eMxhDHR8i_fZ-Yh-1t6r-36" edge="1">
          <mxGeometry width="50" height="50" relative="1" as="geometry">
            <mxPoint x="109" y="888" as="sourcePoint" />
            <mxPoint x="138" y="860" as="targetPoint" />
          </mxGeometry>
        </mxCell>
        <mxCell id="2oA3WKhP0oF_Ri5UwpzC-5" value="" style="endArrow=none;html=1;rounded=0;dashed=1;" parent="1" edge="1">
          <mxGeometry width="50" height="50" relative="1" as="geometry">
            <mxPoint x="68.75" y="891.64" as="sourcePoint" />
            <mxPoint x="98.75" y="891.64" as="targetPoint" />
          </mxGeometry>
        </mxCell>
        <mxCell id="2oA3WKhP0oF_Ri5UwpzC-6" value="" style="endArrow=none;html=1;rounded=0;dashed=1;" parent="1" edge="1">
          <mxGeometry width="50" height="50" relative="1" as="geometry">
            <mxPoint x="505.5" y="753.34" as="sourcePoint" />
            <mxPoint x="536.25" y="753.54" as="targetPoint" />
          </mxGeometry>
        </mxCell>
        <mxCell id="2oA3WKhP0oF_Ri5UwpzC-7" value="" style="endArrow=none;html=1;rounded=0;dashed=1;" parent="1" edge="1">
          <mxGeometry width="50" height="50" relative="1" as="geometry">
            <mxPoint x="765" y="619.0000000000001" as="sourcePoint" />
            <mxPoint x="835" y="619.25" as="targetPoint" />
          </mxGeometry>
        </mxCell>
        <mxCell id="2oA3WKhP0oF_Ri5UwpzC-9" value="" style="endArrow=none;dashed=1;html=1;rounded=0;" parent="1" edge="1">
          <mxGeometry width="50" height="50" relative="1" as="geometry">
            <mxPoint x="569.75" y="461.47" as="sourcePoint" />
            <mxPoint x="596.5" y="462" as="targetPoint" />
          </mxGeometry>
        </mxCell>
        <mxCell id="5Oc1KHu-XODOHg-Idlgh-1" value="" style="endArrow=none;html=1;rounded=0;entryX=0;entryY=0.75;entryDx=0;entryDy=0;exitX=1;exitY=0;exitDx=0;exitDy=0;" parent="1" source="eMxhDHR8i_fZ-Yh-1t6r-10" target="5Oc1KHu-XODOHg-Idlgh-4" edge="1">
          <mxGeometry width="50" height="50" relative="1" as="geometry">
            <mxPoint x="159.75" y="399" as="sourcePoint" />
            <mxPoint x="180" y="380" as="targetPoint" />
          </mxGeometry>
        </mxCell>
        <mxCell id="5Oc1KHu-XODOHg-Idlgh-3" value="" style="ellipse;whiteSpace=wrap;html=1;dashed=1;" parent="1" vertex="1">
          <mxGeometry x="153.5" y="336" width="103.5" height="26" as="geometry" />
        </mxCell>
        <mxCell id="5Oc1KHu-XODOHg-Idlgh-4" value="num_funcionarios" style="text;strokeColor=none;align=center;fillColor=none;html=1;verticalAlign=middle;whiteSpace=wrap;rounded=0;" parent="1" vertex="1">
          <mxGeometry x="175.25" y="333" width="60" height="30" as="geometry" />
        </mxCell>
        <mxCell id="5Oc1KHu-XODOHg-Idlgh-15" value="morada" style="ellipse;whiteSpace=wrap;html=1;fontSize=10;" parent="1" vertex="1">
          <mxGeometry x="135.5" y="299" width="50" height="20" as="geometry" />
        </mxCell>
        <mxCell id="5Oc1KHu-XODOHg-Idlgh-16" value="rua" style="ellipse;whiteSpace=wrap;html=1;fontSize=10;" parent="1" vertex="1">
          <mxGeometry x="191.75" y="238" width="30" height="20" as="geometry" />
        </mxCell>
        <mxCell id="5Oc1KHu-XODOHg-Idlgh-17" value="localidade" style="ellipse;whiteSpace=wrap;html=1;fontSize=10;" parent="1" vertex="1">
          <mxGeometry x="123.75" y="230" width="60" height="20" as="geometry" />
        </mxCell>
        <mxCell id="5Oc1KHu-XODOHg-Idlgh-18" value="" style="endArrow=none;html=1;rounded=0;entryX=0.5;entryY=1;entryDx=0;entryDy=0;exitX=0.635;exitY=-0.01;exitDx=0;exitDy=0;exitPerimeter=0;" parent="1" target="5Oc1KHu-XODOHg-Idlgh-16" edge="1">
          <mxGeometry width="50" height="50" relative="1" as="geometry">
            <mxPoint x="167.25" y="298.79999999999995" as="sourcePoint" />
            <mxPoint x="98.25" y="279" as="targetPoint" />
          </mxGeometry>
        </mxCell>
        <mxCell id="5Oc1KHu-XODOHg-Idlgh-19" value="" style="endArrow=none;html=1;rounded=0;exitX=0.315;exitY=0.063;exitDx=0;exitDy=0;exitPerimeter=0;entryX=0.5;entryY=1;entryDx=0;entryDy=0;" parent="1" target="5Oc1KHu-XODOHg-Idlgh-17" edge="1">
          <mxGeometry width="50" height="50" relative="1" as="geometry">
            <mxPoint x="151.25" y="300.26" as="sourcePoint" />
            <mxPoint x="157" y="259" as="targetPoint" />
            <Array as="points" />
          </mxGeometry>
        </mxCell>
        <mxCell id="5Oc1KHu-XODOHg-Idlgh-20" value="" style="endArrow=none;html=1;rounded=0;entryX=1;entryY=1;entryDx=0;entryDy=0;exitX=0;exitY=0;exitDx=0;exitDy=0;" parent="1" target="5Oc1KHu-XODOHg-Idlgh-23" edge="1">
          <mxGeometry width="50" height="50" relative="1" as="geometry">
            <mxPoint x="142.8934671123867" y="301.90059157757537" as="sourcePoint" />
            <mxPoint x="124" y="272" as="targetPoint" />
          </mxGeometry>
        </mxCell>
        <mxCell id="5Oc1KHu-XODOHg-Idlgh-21" value="número" style="ellipse;whiteSpace=wrap;html=1;fontSize=10;" parent="1" vertex="1">
          <mxGeometry x="217.25" y="261" width="45" height="20" as="geometry" />
        </mxCell>
        <mxCell id="5Oc1KHu-XODOHg-Idlgh-22" value="" style="endArrow=none;html=1;rounded=0;exitX=1;exitY=0;exitDx=0;exitDy=0;entryX=0;entryY=1;entryDx=0;entryDy=0;" parent="1" target="5Oc1KHu-XODOHg-Idlgh-21" edge="1">
          <mxGeometry width="50" height="50" relative="1" as="geometry">
            <mxPoint x="178.1065328876133" y="301.90059157757537" as="sourcePoint" />
            <mxPoint x="246" y="295" as="targetPoint" />
          </mxGeometry>
        </mxCell>
        <mxCell id="5Oc1KHu-XODOHg-Idlgh-23" value="cod_postal" style="ellipse;whiteSpace=wrap;html=1;fontSize=10;" parent="1" vertex="1">
          <mxGeometry x="64" y="258" width="70" height="20" as="geometry" />
        </mxCell>
        <mxCell id="5Oc1KHu-XODOHg-Idlgh-25" value="data_início" style="ellipse;whiteSpace=wrap;html=1;" parent="1" vertex="1">
          <mxGeometry x="9" y="650.75" width="72" height="22" as="geometry" />
        </mxCell>
        <mxCell id="5Oc1KHu-XODOHg-Idlgh-28" value="" style="endArrow=none;html=1;rounded=0;entryX=0;entryY=1;entryDx=0;entryDy=0;exitX=0.5;exitY=0;exitDx=0;exitDy=0;" parent="1" source="5Oc1KHu-XODOHg-Idlgh-25" target="eMxhDHR8i_fZ-Yh-1t6r-12" edge="1">
          <mxGeometry width="50" height="50" relative="1" as="geometry">
            <mxPoint x="70" y="670" as="sourcePoint" />
            <mxPoint x="120" y="620" as="targetPoint" />
          </mxGeometry>
        </mxCell>
        <mxCell id="-ndyWBHVZ927WVzcBCfi-5" value="" style="endArrow=none;html=1;rounded=0;entryX=0.5;entryY=0;entryDx=0;entryDy=0;exitX=0.547;exitY=0.957;exitDx=0;exitDy=0;exitPerimeter=0;" parent="1" source="-ndyWBHVZ927WVzcBCfi-25" target="-ndyWBHVZ927WVzcBCfi-27" edge="1">
          <mxGeometry width="50" height="50" relative="1" as="geometry">
            <mxPoint x="347.5" y="261" as="sourcePoint" />
            <mxPoint x="347" y="294" as="targetPoint" />
          </mxGeometry>
        </mxCell>
        <mxCell id="-ndyWBHVZ927WVzcBCfi-6" value="dia_folga" style="ellipse;whiteSpace=wrap;html=1;" parent="1" vertex="1">
          <mxGeometry x="261.25" y="180" width="85" height="24" as="geometry" />
        </mxCell>
        <mxCell id="-ndyWBHVZ927WVzcBCfi-7" value="h_entrada" style="ellipse;whiteSpace=wrap;html=1;" parent="1" vertex="1">
          <mxGeometry x="326.25" y="156" width="73.25" height="20" as="geometry" />
        </mxCell>
        <mxCell id="-ndyWBHVZ927WVzcBCfi-8" value="h_saída" style="ellipse;whiteSpace=wrap;html=1;" parent="1" vertex="1">
          <mxGeometry x="373.25" y="193" width="61.25" height="20" as="geometry" />
        </mxCell>
        <mxCell id="-ndyWBHVZ927WVzcBCfi-9" value="" style="endArrow=none;html=1;rounded=0;entryX=0.921;entryY=0.004;entryDx=0;entryDy=0;exitX=0.5;exitY=1;exitDx=0;exitDy=0;entryPerimeter=0;" parent="1" source="-ndyWBHVZ927WVzcBCfi-8" target="-ndyWBHVZ927WVzcBCfi-25" edge="1">
          <mxGeometry width="50" height="50" relative="1" as="geometry">
            <mxPoint x="307" y="302" as="sourcePoint" />
            <mxPoint x="369.9899999999999" y="230.01" as="targetPoint" />
          </mxGeometry>
        </mxCell>
        <mxCell id="-ndyWBHVZ927WVzcBCfi-10" value="" style="endArrow=none;html=1;rounded=0;exitX=0.5;exitY=1;exitDx=0;exitDy=0;" parent="1" source="-ndyWBHVZ927WVzcBCfi-7" edge="1">
          <mxGeometry width="50" height="50" relative="1" as="geometry">
            <mxPoint x="360.0005" y="180" as="sourcePoint" />
            <mxPoint x="342" y="230" as="targetPoint" />
          </mxGeometry>
        </mxCell>
        <mxCell id="-ndyWBHVZ927WVzcBCfi-11" value="" style="endArrow=none;html=1;rounded=0;exitX=0.5;exitY=1;exitDx=0;exitDy=0;" parent="1" source="-ndyWBHVZ927WVzcBCfi-6" edge="1">
          <mxGeometry width="50" height="50" relative="1" as="geometry">
            <mxPoint x="375" y="286" as="sourcePoint" />
            <mxPoint x="330" y="230" as="targetPoint" />
          </mxGeometry>
        </mxCell>
        <mxCell id="-ndyWBHVZ927WVzcBCfi-14" value="N" style="text;strokeColor=none;align=center;fillColor=none;html=1;verticalAlign=middle;whiteSpace=wrap;rounded=0;fontSize=10;" parent="1" vertex="1">
          <mxGeometry x="346.25" y="380" width="20" height="20" as="geometry" />
        </mxCell>
        <mxCell id="-ndyWBHVZ927WVzcBCfi-15" value="1" style="text;strokeColor=none;align=center;fillColor=none;html=1;verticalAlign=middle;whiteSpace=wrap;rounded=0;fontSize=10;" parent="1" vertex="1">
          <mxGeometry x="346.25" y="261" width="22.25" height="23.75" as="geometry" />
        </mxCell>
        <mxCell id="-ndyWBHVZ927WVzcBCfi-16" value="" style="shape=link;html=1;rounded=0;exitX=0.113;exitY=-0.018;exitDx=0;exitDy=0;exitPerimeter=0;entryX=0.495;entryY=0.945;entryDx=0;entryDy=0;entryPerimeter=0;" parent="1" source="eMxhDHR8i_fZ-Yh-1t6r-2" target="-ndyWBHVZ927WVzcBCfi-27" edge="1">
          <mxGeometry width="100" relative="1" as="geometry">
            <mxPoint x="346.97" y="400.87" as="sourcePoint" />
            <mxPoint x="347" y="344" as="targetPoint" />
            <Array as="points" />
          </mxGeometry>
        </mxCell>
        <mxCell id="-ndyWBHVZ927WVzcBCfi-22" value="&lt;u&gt;id&lt;/u&gt;" style="ellipse;whiteSpace=wrap;html=1;" parent="1" vertex="1">
          <mxGeometry x="257.5" y="213" width="40" height="26" as="geometry" />
        </mxCell>
        <mxCell id="-ndyWBHVZ927WVzcBCfi-24" value="" style="endArrow=none;html=1;rounded=0;exitX=1;exitY=1;exitDx=0;exitDy=0;entryX=0;entryY=0.5;entryDx=0;entryDy=0;" parent="1" source="-ndyWBHVZ927WVzcBCfi-22" target="-ndyWBHVZ927WVzcBCfi-25" edge="1">
          <mxGeometry width="50" height="50" relative="1" as="geometry">
            <mxPoint x="314" y="214" as="sourcePoint" />
            <mxPoint x="315" y="246" as="targetPoint" />
          </mxGeometry>
        </mxCell>
        <mxCell id="-ndyWBHVZ927WVzcBCfi-25" value="Horário" style="rounded=0;whiteSpace=wrap;html=1;fontSize=10;" parent="1" vertex="1">
          <mxGeometry x="309.25" y="231" width="70" height="30" as="geometry" />
        </mxCell>
        <mxCell id="-ndyWBHVZ927WVzcBCfi-27" value="Tem" style="rhombus;whiteSpace=wrap;html=1;fontSize=10;" parent="1" vertex="1">
          <mxGeometry x="323.25" y="294" width="50" height="50" as="geometry" />
        </mxCell>
        <mxCell id="-ndyWBHVZ927WVzcBCfi-30" value="classificação" style="ellipse;whiteSpace=wrap;html=1;fontSize=10;fontStyle=0;dashed=1;" parent="1" vertex="1">
          <mxGeometry x="389.63" y="318" width="70.37" height="26" as="geometry" />
        </mxCell>
        <mxCell id="-ndyWBHVZ927WVzcBCfi-31" value="" style="endArrow=none;html=1;rounded=0;entryX=0.75;entryY=0;entryDx=0;entryDy=0;exitX=0.37;exitY=0.995;exitDx=0;exitDy=0;exitPerimeter=0;" parent="1" source="-ndyWBHVZ927WVzcBCfi-30" target="eMxhDHR8i_fZ-Yh-1t6r-2" edge="1">
          <mxGeometry width="50" height="50" relative="1" as="geometry">
            <mxPoint x="480" y="359" as="sourcePoint" />
            <mxPoint x="411" y="410" as="targetPoint" />
          </mxGeometry>
        </mxCell>
      </root>
    </mxGraphModel>
  </diagram>
</mxfile>
